#!OML:ASF H:\Terrain\Patient Classification 1\Terrain2\Thursday\justin.ASF
:FULLY-SPECIFIED
:DEGREES
1870
root 30.0089 17.5607 -22.7609 713.657 50.8506 711.61
lowerback 4.16843 4.112 4.20856
upperback 0.837266 5.69555 1.29236
thorax -1.19035 2.83848 -1.29451
lowerneck -14.5788 -5.27501 -8.28795
upperneck 26.6486 -7.27808 7.98923
head 11.7326 -3.03013 3.33959
rclavicle -2.32951e-016 6.75868e-015
rhumerus -26.1431 -13.041 -80.1665
rradius 32.8545
rwrist -12.602
rhand -22.7136 14.3432
rfingers 7.12502
rthumb 3.71969 -15.6041
lclavicle -2.32951e-016 6.75868e-015
lhumerus -35.5884 6.54117 80.0704
lradius 25.5919
lwrist 0.227117
lhand -16.507 21.8712
lfingers 7.12502
lthumb 9.71104 51.6274
rfemur -9.60209 10.4718 24.1754
rtibia 33.9947
rfoot -19.0814 9.46175
rtoes 0.957945
lfemur -13.8588 -7.88046 -9.7162
ltibia 25.8812
lfoot -7.12216 -23.8727
ltoes 17.2415
1871
root 30.0561 17.5789 -22.7897 713.646 49.895 711.492
lowerback 4.16573 4.21521 4.83623
upperback 0.892919 5.85042 0.953499
thorax -1.02501 2.91801 -1.98425
lowerneck -14.4538 -5.63749 -7.90191
upperneck 26.6842 -7.9847 8.22108
head 11.7853 -3.28214 3.25426
rclavicle 6.21078e-014 -3.77691e-015
rhumerus -26.1689 -14.464 -80.2192
rradius 32.0935
rwrist -12.5469
rhand -22.1465 14.5881
rfingers 7.12502
rthumb 4.26731 -15.3489
lclavicle 6.21078e-014 -3.77691e-015
lhumerus -35.2227 6.29308 79.2892
lradius 25.4719
lwrist -1.03763
lhand -15.4766 21.3887
lfingers 7.12502
lthumb 10.7051 51.096
rfemur -10.3689 11.2001 24.3126
rtibia 34.102
rfoot -17.3448 10.2117
rtoes 7.04778
lfemur -13.4135 -7.53656 -9.68726
ltibia 25.5434
lfoot -7.40626 -23.2737
ltoes 16.7053
1872
root 30.0959 17.5939 -22.8078 714.136 49.0856 711.984
lowerback 4.15004 4.2656 4.66968
upperback 0.918472 5.9027 0.685689
thorax -0.974658 2.9456 -2.16496
lowerneck -14.3447 -5.79713 -8.10964
upperneck 26.7588 -8.37768 8.92979
head 11.8787 -3.3941 3.50128
rclavicle 1.00138e-014 6.16232e-015
rhumerus -26.2205 -15.5649 -80.1649
rradius 31.2612
rwrist -12.7088
rhand -21.4943 14.9599
rfingers 7.12502
rthumb 4.89703 -14.9635
lclavicle 1.00138e-014 6.16232e-015
lhumerus -35.0314 4.84095 79.6012
lradius 25.5772
lwrist 2.14294
lhand -20.6199 22.9904
lfingers 7.12502
lthumb 5.74137 52.8926
rfemur -10.9072 11.1926 23.9926
rtibia 34.283
rfoot -16.3795 10.848
rtoes 8.71134
lfemur -13.0559 -7.13609 -10.0594
ltibia 25.2896
lfoot -7.55056 -22.8646
ltoes 17.1056
1873
root 30.1394 17.6021 -22.8358 714.663 48.1391 712.54
lowerback 4.20209 4.39221 4.30605
upperback 0.914909 6.05627 0.588076
thorax -1.02359 3.02141 -2.07572
lowerneck -14.1851 -5.89115 -8.16773
upperneck 26.8207 -8.62841 9.33
head 11.9216 -3.46605 3.62926
rclavicle 3.67255e-014 -1.5704e-014
rhumerus -26.3632 -16.3403 -79.7821
rradius 30.4283
rwrist -12.798
rhand -21.673 15.2182
rfingers 7.12502
rthumb 4.72449 -14.7092
lclavicle 3.67255e-014 -1.5704e-014
lhumerus -34.9272 4.5165 79.5935
lradius 25.6963
lwrist 2.63475
lhand -20.35 22.9726
lfingers 7.12502
lthumb 6.0019 52.8675
rfemur -11.1462 10.9146 23.563
rtibia 34.6342
rfoot -16.3039 11.0442
rtoes 6.00826
lfemur -12.7286 -6.80635 -10.5358
ltibia 25.1031
lfoot -7.86001 -22.1315
ltoes 16.5153
1874
root 30.1837 17.6097 -22.8697 714.671 46.9031 712.367
lowerback 4.17377 4.52566 4.53943
upperback 0.835751 6.24577 0.651725
thorax -1.05911 3.11333 -2.14629
lowerneck -13.555 -6.25261 -7.69057
upperneck 26.7488 -9.22872 9.06272
head 11.7895 -3.73725 3.36235
rclavicle -5.71257e-014 -8.94531e-015
rhumerus -26.551 -16.7284 -79.3621
rradius 29.753
rwrist -12.7202
rhand -22.6688 14.4636
rfingers 7.12502
rthumb 3.7629 -15.4829
lclavicle -5.71257e-014 -8.94531e-015
lhumerus -35.0516 4.53503 79.4242
lradius 25.7042
lwrist 2.69802
lhand -18.8618 22.625
lfingers 7.12502
lthumb 7.4386 52.4742
rfemur -11.5219 10.8135 23.7194
rtibia 35.1571
rfoot -16.405 10.7736
rtoes 1.37185
lfemur -12.4096 -6.25649 -10.4751
ltibia 24.9063
lfoot -8.37843 -21.3136
ltoes 14.8518
1875
root 30.2183 17.6052 -22.8867 714.434 45.9768 712.183
lowerback 4.3323 4.5627 4.71777
upperback 0.796565 6.31196 0.597497
thorax -1.15791 3.14271 -2.31753
lowerneck -13.2162 -6.27018 -8.46579
upperneck 27.0764 -9.326 9.86
head 11.9479 -3.76536 3.80002
rclavicle -2.13445e-014 2.04748e-014
rhumerus -26.8424 -18.1776 -78.7624
rradius 29.1006
rwrist -10.7571
rhand -22.0498 12.6943
rfingers 7.12502
rthumb 4.3607 -17.2408
lclavicle -2.13445e-014 2.04748e-014
lhumerus -35.2017 3.71448 79.2845
lradius 25.8894
lwrist 3.76284
lhand -19.4646 23.0862
lfingers 7.12502
lthumb 6.85668 52.9552
rfemur -11.8032 10.8027 23.9859
rtibia 35.8791
rfoot -16.0583 10.5305
rtoes 1.08969
lfemur -11.8738 -5.52447 -10.3872
ltibia 24.6634
lfoot -8.9408 -20.959
ltoes 12.7286
